<?xml version="1.0" encoding="UTF-8"?>
<svg xmlns="http://www.w3.org/2000/svg" width="2200" height="1300" viewBox="0 0 2200 1300">

<defs>
  <marker id="arrow" markerWidth="12" markerHeight="12" refX="10" refY="6" orient="auto">
    <path d="M2,2 L10,6 L2,10 Z" fill="#333"/>
  </marker>
</defs>

<rect x="0" y="0" width="2200" height="1300" fill="#fafafa"/>
<text x="1100.0" y="35" text-anchor="middle" font-size="28" font-family="Arial" font-weight="700">Proces BPMN 2.0: przygotowanie, złożenie i obsługa wniosku „Młody Rolnik”</text>
<rect x="80" y="60" width="2000" height="270" fill="#fff" stroke="#777" stroke-width="2"/>
<rect x="80" y="60" width="190" height="270" fill="#f0f0f0" stroke="#777" stroke-width="2"/>
<text x="140" y="195.0" text-anchor="middle" font-size="26" font-family="Arial" font-weight="700" transform="rotate(-90 140 195.0)">ARiMR</text>
<rect x="80" y="330" width="2000" height="270" fill="#fff" stroke="#777" stroke-width="2"/>
<rect x="80" y="330" width="190" height="270" fill="#f0f0f0" stroke="#777" stroke-width="2"/>
<text x="140" y="465.0" text-anchor="middle" font-size="26" font-family="Arial" font-weight="700" transform="rotate(-90 140 465.0)">Rolnik / wnioskodawca</text>
<rect x="80" y="600" width="2000" height="270" fill="#fff" stroke="#777" stroke-width="2"/>
<rect x="80" y="600" width="190" height="270" fill="#f0f0f0" stroke="#777" stroke-width="2"/>
<text x="140" y="735.0" text-anchor="middle" font-size="26" font-family="Arial" font-weight="700" transform="rotate(-90 140 735.0)">Doradca rolniczy</text>
<rect x="80" y="870" width="2000" height="270" fill="#fff" stroke="#777" stroke-width="2"/>
<rect x="80" y="870" width="190" height="270" fill="#f0f0f0" stroke="#777" stroke-width="2"/>
<text x="140" y="1005.0" text-anchor="middle" font-size="26" font-family="Arial" font-weight="700" transform="rotate(-90 140 1005.0)">System PUE / ARiMR</text>
<circle cx="340" cy="190" r="45" fill="#e3ad2f" stroke="#8a5e00" stroke-width="4"/>
<text x="340" y="262.9" text-anchor="middle" font-size="22" font-family="Arial" font-weight="600" fill="#111">Uruchomienie naboru</text>
<text x="340" y="288.2" text-anchor="middle" font-size="22" font-family="Arial" font-weight="600" fill="#111">w programie</text>
<rect x="520" y="405" width="230" height="110" rx="16" ry="16" fill="#58c7df" stroke="#167a90" stroke-width="3"/>
<circle cx="544" cy="429" r="18" fill="#fff" stroke="#167a90" stroke-width="2"/>
<text x="544" y="436" text-anchor="middle" font-size="18" font-family="Arial" font-weight="700">1</text>
<text x="635.0" y="452.8" text-anchor="middle" font-size="24" font-family="Arial" font-weight="600" fill="#111">Zapoznanie się z</text>
<text x="635.0" y="480.40000000000003" text-anchor="middle" font-size="24" font-family="Arial" font-weight="600" fill="#111">ogłoszeniem</text>
<rect x="840" y="405" width="260" height="110" rx="16" ry="16" fill="#58c7df" stroke="#167a90" stroke-width="3"/>
<circle cx="864" cy="429" r="18" fill="#fff" stroke="#167a90" stroke-width="2"/>
<text x="864" y="436" text-anchor="middle" font-size="18" font-family="Arial" font-weight="700">2</text>
<text x="970.0" y="452.8" text-anchor="middle" font-size="24" font-family="Arial" font-weight="600" fill="#111">Zgłoszenie się do</text>
<text x="970.0" y="480.40000000000003" text-anchor="middle" font-size="24" font-family="Arial" font-weight="600" fill="#111">doradcy rolniczego</text>
<rect x="850" y="675" width="270" height="110" rx="16" ry="16" fill="#58c7df" stroke="#167a90" stroke-width="3"/>
<circle cx="874" cy="699" r="18" fill="#fff" stroke="#167a90" stroke-width="2"/>
<text x="874" y="706" text-anchor="middle" font-size="18" font-family="Arial" font-weight="700">3</text>
<text x="985.0" y="709.6" text-anchor="middle" font-size="24" font-family="Arial" font-weight="600" fill="#111">Przyjęcie zgłoszenia</text>
<text x="985.0" y="737.2" text-anchor="middle" font-size="24" font-family="Arial" font-weight="600" fill="#111">i konsultacja</text>
<text x="985.0" y="764.8000000000001" text-anchor="middle" font-size="24" font-family="Arial" font-weight="600" fill="#111">wstępna</text>
<rect x="1185" y="675" width="110" height="110" transform="rotate(45 1240 730)" fill="#e3ad2f" stroke="#8a5e00" stroke-width="4"/>
<text x="1240" y="738" text-anchor="middle" font-size="22" font-family="Arial" font-weight="700">4</text>
<text x="1240" y="822.9" text-anchor="middle" font-size="22" font-family="Arial" font-weight="600" fill="#111">Czy rolnik spełnia</text>
<text x="1240" y="848.1999999999999" text-anchor="middle" font-size="22" font-family="Arial" font-weight="600" fill="#111">warunki programu?</text>
<circle cx="1050" cy="835" r="45" fill="#e3ad2f" stroke="#333" stroke-width="7"/>
<text x="1050" y="900.8" text-anchor="middle" font-size="22" font-family="Arial" font-weight="600" fill="#111">Brak możliwości</text>
<text x="1050" y="926.0999999999999" text-anchor="middle" font-size="22" font-family="Arial" font-weight="600" fill="#111">skorzystania z</text>
<text x="1050" y="951.4" text-anchor="middle" font-size="22" font-family="Arial" font-weight="600" fill="#111">programu</text>
<rect x="1410" y="675" width="260" height="110" rx="16" ry="16" fill="#58c7df" stroke="#167a90" stroke-width="3"/>
<circle cx="1434" cy="699" r="18" fill="#fff" stroke="#167a90" stroke-width="2"/>
<text x="1434" y="706" text-anchor="middle" font-size="18" font-family="Arial" font-weight="700">5</text>
<text x="1540.0" y="722.8" text-anchor="middle" font-size="24" font-family="Arial" font-weight="600" fill="#111">Przygotowanie</text>
<text x="1540.0" y="750.4" text-anchor="middle" font-size="24" font-family="Arial" font-weight="600" fill="#111">dokumentów</text>
<rect x="1685" y="675" width="110" height="110" transform="rotate(45 1740 730)" fill="#e3ad2f" stroke="#8a5e00" stroke-width="4"/>
<text x="1740" y="745" text-anchor="middle" font-size="58" font-family="Arial" font-weight="700">+</text>
<text x="1740" y="810.8" text-anchor="middle" font-size="22" font-family="Arial" font-weight="600" fill="#111">Równoległe</text>
<text x="1740" y="836.0999999999999" text-anchor="middle" font-size="22" font-family="Arial" font-weight="600" fill="#111">przygotowanie</text>
<text x="1740" y="861.4" text-anchor="middle" font-size="22" font-family="Arial" font-weight="600" fill="#111">załączników</text>
<rect x="1640" y="405" width="260" height="110" rx="16" ry="16" fill="#58c7df" stroke="#167a90" stroke-width="3"/>
<circle cx="1664" cy="429" r="18" fill="#fff" stroke="#167a90" stroke-width="2"/>
<text x="1664" y="436" text-anchor="middle" font-size="18" font-family="Arial" font-weight="700">6</text>
<text x="1770.0" y="452.8" text-anchor="middle" font-size="24" font-family="Arial" font-weight="600" fill="#111">Podpisanie gotowej</text>
<text x="1770.0" y="480.40000000000003" text-anchor="middle" font-size="24" font-family="Arial" font-weight="600" fill="#111">dokumentacji</text>
<rect x="1640" y="945" width="260" height="110" rx="16" ry="16" fill="#58c7df" stroke="#167a90" stroke-width="3"/>
<circle cx="1664" cy="969" r="18" fill="#fff" stroke="#167a90" stroke-width="2"/>
<text x="1664" y="976" text-anchor="middle" font-size="18" font-family="Arial" font-weight="700">7</text>
<text x="1770.0" y="979.6" text-anchor="middle" font-size="24" font-family="Arial" font-weight="600" fill="#111">Wypełnienie</text>
<text x="1770.0" y="1007.2" text-anchor="middle" font-size="24" font-family="Arial" font-weight="600" fill="#111">formularza w PUE</text>
<text x="1770.0" y="1034.8" text-anchor="middle" font-size="24" font-family="Arial" font-weight="600" fill="#111">ARiMR</text>
<rect x="1915" y="675" width="110" height="110" transform="rotate(45 1970 730)" fill="#e3ad2f" stroke="#8a5e00" stroke-width="4"/>
<text x="1970" y="745" text-anchor="middle" font-size="58" font-family="Arial" font-weight="700">+</text>
<text x="1970" y="822.9" text-anchor="middle" font-size="22" font-family="Arial" font-weight="600" fill="#111">Komplet dokumentów</text>
<text x="1970" y="848.1999999999999" text-anchor="middle" font-size="22" font-family="Arial" font-weight="600" fill="#111">gotowy</text>
<rect x="1745" y="1075" width="260" height="110" rx="16" ry="16" fill="#58c7df" stroke="#167a90" stroke-width="3"/>
<circle cx="1769" cy="1099" r="18" fill="#fff" stroke="#167a90" stroke-width="2"/>
<text x="1769" y="1106" text-anchor="middle" font-size="18" font-family="Arial" font-weight="700">8</text>
<text x="1875.0" y="1122.8" text-anchor="middle" font-size="24" font-family="Arial" font-weight="600" fill="#111">Złożenie wniosku do</text>
<text x="1875.0" y="1150.3999999999999" text-anchor="middle" font-size="24" font-family="Arial" font-weight="600" fill="#111">ARiMR</text>
<rect x="1420" y="1075" width="250" height="110" rx="16" ry="16" fill="#58c7df" stroke="#167a90" stroke-width="3"/>
<circle cx="1444" cy="1099" r="18" fill="#fff" stroke="#167a90" stroke-width="2"/>
<text x="1444" y="1106" text-anchor="middle" font-size="18" font-family="Arial" font-weight="700">9</text>
<text x="1545.0" y="1109.6" text-anchor="middle" font-size="24" font-family="Arial" font-weight="600" fill="#111">Rejestracja</text>
<text x="1545.0" y="1137.1999999999998" text-anchor="middle" font-size="24" font-family="Arial" font-weight="600" fill="#111">wniosku w systemie</text>
<text x="1545.0" y="1164.8" text-anchor="middle" font-size="24" font-family="Arial" font-weight="600" fill="#111">ARiMR</text>
<rect x="1120" y="1075" width="250" height="110" rx="16" ry="16" fill="#58c7df" stroke="#167a90" stroke-width="3"/>
<circle cx="1144" cy="1099" r="18" fill="#fff" stroke="#167a90" stroke-width="2"/>
<text x="1144" y="1106" text-anchor="middle" font-size="18" font-family="Arial" font-weight="700">10</text>
<text x="1245.0" y="1122.8" text-anchor="middle" font-size="24" font-family="Arial" font-weight="600" fill="#111">Weryfikacja</text>
<text x="1245.0" y="1150.3999999999999" text-anchor="middle" font-size="24" font-family="Arial" font-weight="600" fill="#111">formalna wniosku</text>
<rect x="765" y="1075" width="110" height="110" transform="rotate(45 820 1130)" fill="#e3ad2f" stroke="#8a5e00" stroke-width="4"/>
<text x="820" y="1138" text-anchor="middle" font-size="22" font-family="Arial" font-weight="700">11</text>
<text x="820" y="1222.9" text-anchor="middle" font-size="22" font-family="Arial" font-weight="600" fill="#111">Czy wniosek jest</text>
<text x="820" y="1248.2" text-anchor="middle" font-size="22" font-family="Arial" font-weight="600" fill="#111">kompletny?</text>
<rect x="520" y="1075" width="250" height="110" rx="16" ry="16" fill="#58c7df" stroke="#167a90" stroke-width="3"/>
<circle cx="544" cy="1099" r="18" fill="#fff" stroke="#167a90" stroke-width="2"/>
<text x="544" y="1106" text-anchor="middle" font-size="18" font-family="Arial" font-weight="700">12</text>
<text x="645.0" y="1109.6" text-anchor="middle" font-size="24" font-family="Arial" font-weight="600" fill="#111">Wezwanie do</text>
<text x="645.0" y="1137.1999999999998" text-anchor="middle" font-size="24" font-family="Arial" font-weight="600" fill="#111">uzupełnienia</text>
<text x="645.0" y="1164.8" text-anchor="middle" font-size="24" font-family="Arial" font-weight="600" fill="#111">braków</text>
<rect x="520" y="525" width="250" height="110" rx="16" ry="16" fill="#58c7df" stroke="#167a90" stroke-width="3"/>
<circle cx="544" cy="549" r="18" fill="#fff" stroke="#167a90" stroke-width="2"/>
<text x="544" y="556" text-anchor="middle" font-size="18" font-family="Arial" font-weight="700">13</text>
<text x="645.0" y="559.6" text-anchor="middle" font-size="24" font-family="Arial" font-weight="600" fill="#111">Uzupełnienie</text>
<text x="645.0" y="587.2" text-anchor="middle" font-size="24" font-family="Arial" font-weight="600" fill="#111">braków przez</text>
<text x="645.0" y="614.8000000000001" text-anchor="middle" font-size="24" font-family="Arial" font-weight="600" fill="#111">rolnika</text>
<rect x="940" y="230" width="260" height="110" rx="16" ry="16" fill="#58c7df" stroke="#167a90" stroke-width="3"/>
<circle cx="964" cy="254" r="18" fill="#fff" stroke="#167a90" stroke-width="2"/>
<text x="964" y="261" text-anchor="middle" font-size="18" font-family="Arial" font-weight="700">14</text>
<text x="1070.0" y="277.8" text-anchor="middle" font-size="24" font-family="Arial" font-weight="600" fill="#111">Ocena merytoryczna</text>
<text x="1070.0" y="305.40000000000003" text-anchor="middle" font-size="24" font-family="Arial" font-weight="600" fill="#111">wniosku</text>
<rect x="1225" y="230" width="110" height="110" transform="rotate(45 1280 285)" fill="#e3ad2f" stroke="#8a5e00" stroke-width="4"/>
<text x="1280" y="293" text-anchor="middle" font-size="22" font-family="Arial" font-weight="700">15</text>
<text x="1280" y="390.0" text-anchor="middle" font-size="22" font-family="Arial" font-weight="600" fill="#111">Czy decyzja pozytywna?</text>
<rect x="1510" y="230" width="260" height="110" rx="16" ry="16" fill="#58c7df" stroke="#167a90" stroke-width="3"/>
<circle cx="1534" cy="254" r="18" fill="#fff" stroke="#167a90" stroke-width="2"/>
<text x="1534" y="261" text-anchor="middle" font-size="18" font-family="Arial" font-weight="700">16</text>
<text x="1640.0" y="277.8" text-anchor="middle" font-size="24" font-family="Arial" font-weight="600" fill="#111">Wydanie decyzji o</text>
<text x="1640.0" y="305.40000000000003" text-anchor="middle" font-size="24" font-family="Arial" font-weight="600" fill="#111">przyznaniu pomocy</text>
<circle cx="1920" cy="285" r="45" fill="#e3ad2f" stroke="#333" stroke-width="7"/>
<text x="1920" y="362.9" text-anchor="middle" font-size="22" font-family="Arial" font-weight="600" fill="#111">Pomoc przyznana /</text>
<text x="1920" y="388.2" text-anchor="middle" font-size="22" font-family="Arial" font-weight="600" fill="#111">proces zakończony</text>
<rect x="1510" y="95" width="260" height="110" rx="16" ry="16" fill="#58c7df" stroke="#167a90" stroke-width="3"/>
<circle cx="1534" cy="119" r="18" fill="#fff" stroke="#167a90" stroke-width="2"/>
<text x="1534" y="126" text-anchor="middle" font-size="18" font-family="Arial" font-weight="700">17</text>
<text x="1640.0" y="142.8" text-anchor="middle" font-size="24" font-family="Arial" font-weight="600" fill="#111">Wydanie decyzji</text>
<text x="1640.0" y="170.4" text-anchor="middle" font-size="24" font-family="Arial" font-weight="600" fill="#111">odmownej</text>
<circle cx="1920" cy="150" r="45" fill="#e3ad2f" stroke="#333" stroke-width="7"/>
<text x="1920" y="240.0" text-anchor="middle" font-size="22" font-family="Arial" font-weight="600" fill="#111">Wniosek odrzucony</text>
<line x1="340" y1="235" x2="340" y2="405" stroke="#333" stroke-width="4" marker-end="url(#arrow)"/>
<line x1="385" y1="460" x2="520" y2="460" stroke="#333" stroke-width="4" marker-end="url(#arrow)"/>
<line x1="750" y1="460" x2="840" y2="460" stroke="#333" stroke-width="4" marker-end="url(#arrow)"/>
<line x1="970" y1="515" x2="970" y2="675" stroke="#333" stroke-width="4" marker-end="url(#arrow)"/>
<line x1="970" y1="785" x2="1185" y2="730" stroke="#333" stroke-width="4" marker-end="url(#arrow)"/>
<line x1="1185" y1="730" x2="1095" y2="835" stroke="#333" stroke-width="4" marker-end="url(#arrow)"/>
<rect x="1105.0" y="747.5" width="70" height="30" fill="white" opacity="0.9"/>
<text x="1140.0" y="770.5" text-anchor="middle" font-size="20" font-family="Arial" font-weight="700">nie</text>
<line x1="1295" y1="730" x2="1410" y2="730" stroke="#333" stroke-width="4" marker-end="url(#arrow)"/>
<rect x="1317.5" y="695.0" width="70" height="30" fill="white" opacity="0.9"/>
<text x="1352.5" y="718.0" text-anchor="middle" font-size="20" font-family="Arial" font-weight="700">tak</text>
<line x1="1670" y1="730" x2="1685" y2="730" stroke="#333" stroke-width="4" marker-end="url(#arrow)"/>
<line x1="1740" y1="675" x2="1740" y2="515" stroke="#333" stroke-width="4" marker-end="url(#arrow)"/>
<line x1="1740" y1="785" x2="1740" y2="945" stroke="#333" stroke-width="4" marker-end="url(#arrow)"/>
<line x1="1900" y1="460" x2="1970" y2="675" stroke="#333" stroke-width="4" marker-end="url(#arrow)"/>
<line x1="1900" y1="1000" x2="1970" y2="785" stroke="#333" stroke-width="4" marker-end="url(#arrow)"/>
<line x1="1970" y1="785" x2="1875" y2="1075" stroke="#333" stroke-width="4" marker-end="url(#arrow)"/>
<line x1="1745" y1="1130" x2="1670" y2="1130" stroke="#333" stroke-width="4" marker-end="url(#arrow)"/>
<line x1="1420" y1="1130" x2="1370" y2="1130" stroke="#333" stroke-width="4" marker-end="url(#arrow)"/>
<line x1="1120" y1="1130" x2="875" y2="1130" stroke="#333" stroke-width="4" marker-end="url(#arrow)"/>
<line x1="765" y1="1130" x2="645" y2="1130" stroke="#333" stroke-width="4" marker-end="url(#arrow)"/>
<rect x="670.0" y="1095.0" width="70" height="30" fill="white" opacity="0.9"/>
<text x="705.0" y="1118.0" text-anchor="middle" font-size="20" font-family="Arial" font-weight="700">nie</text>
<line x1="645" y1="1075" x2="645" y2="635" stroke="#333" stroke-width="4" marker-end="url(#arrow)"/>
<line x1="770" y1="580" x2="1030" y2="580" stroke="#333" stroke-width="4" marker-end="url(#arrow)"/>
<line x1="1030" y1="580" x2="1030" y2="1070" stroke="#333" stroke-width="4" marker-end="url(#arrow)"/>
<line x1="820" y1="1075" x2="945" y2="285" stroke="#333" stroke-width="4" marker-end="url(#arrow)"/>
<rect x="847.5" y="645.0" width="70" height="30" fill="white" opacity="0.9"/>
<text x="882.5" y="668.0" text-anchor="middle" font-size="20" font-family="Arial" font-weight="700">tak</text>
<line x1="1200" y1="285" x2="1225" y2="285" stroke="#333" stroke-width="4" marker-end="url(#arrow)"/>
<line x1="1335" y1="285" x2="1510" y2="285" stroke="#333" stroke-width="4" marker-end="url(#arrow)"/>
<rect x="1387.5" y="250.0" width="70" height="30" fill="white" opacity="0.9"/>
<text x="1422.5" y="273.0" text-anchor="middle" font-size="20" font-family="Arial" font-weight="700">tak</text>
<line x1="1770" y1="285" x2="1875" y2="285" stroke="#333" stroke-width="4" marker-end="url(#arrow)"/>
<line x1="1280" y1="230" x2="1510" y2="150" stroke="#333" stroke-width="4" marker-end="url(#arrow)"/>
<rect x="1360.0" y="155.0" width="70" height="30" fill="white" opacity="0.9"/>
<text x="1395.0" y="178.0" text-anchor="middle" font-size="20" font-family="Arial" font-weight="700">nie</text>
<line x1="1770" y1="150" x2="1875" y2="150" stroke="#333" stroke-width="4" marker-end="url(#arrow)"/>
<text x="100" y="1235" font-size="22" font-family="Arial" font-weight="700">Modele pomocnicze:</text>
<text x="100" y="1265" font-size="20" font-family="Arial">Dokumenty do podpięcia: ogłoszenie naboru, regulamin, wniosek, biznesplan, załączniki, wezwanie do uzupełnienia, decyzja.</text>
<text x="100" y="1290" font-size="20" font-family="Arial">Systemy IT: PUE ARiMR, system rejestracji/obsługi wniosków ARiMR, ewentualnie profil zaufany/ePUAP.</text>
</svg>
