<svg xmlns="http://www.w3.org/2000/svg" width="1600" height="950" viewBox="0 0 1600 950">
<defs>
  <marker id="arrow" markerWidth="12" markerHeight="12" refX="10" refY="6" orient="auto">
    <path d="M2,2 L10,6 L2,10 Z" fill="#222"/>
  </marker>
  <filter id="shadow" x="-20%" y="-20%" width="140%" height="140%">
    <feDropShadow dx="0" dy="2" stdDeviation="2" flood-color="#000" flood-opacity="0.12"/>
  </filter>
</defs>
<rect width="1600" height="950" fill="#f7f7f7"/><text x="800.0" y="52" text-anchor="middle" font-family="Arial" font-size="30" font-weight="800">Model dokumentów — Program Młody Rolnik</text><text x="800.0" y="86" text-anchor="middle" font-family="Arial" font-size="17" fill="#555">Dokumenty wejściowe, robocze i wyjściowe wykorzystywane w procesie BPMN</text><rect x="70" y="140" width="460" height="700" rx="18" fill="#ffffff" stroke="#c9c9c9" stroke-width="2"/><text x="300.0" y="178" text-anchor="middle" font-family="Arial" font-size="22" font-weight="800">Dokumenty wejściowe</text><rect x="570" y="140" width="460" height="700" rx="18" fill="#ffffff" stroke="#c9c9c9" stroke-width="2"/><text x="800.0" y="178" text-anchor="middle" font-family="Arial" font-size="22" font-weight="800">Dokumenty robocze / wniosek</text><rect x="1070" y="140" width="460" height="700" rx="18" fill="#ffffff" stroke="#c9c9c9" stroke-width="2"/><text x="1300.0" y="178" text-anchor="middle" font-family="Arial" font-size="22" font-weight="800">Dokumenty wyjściowe</text><path d="M145,225 H433 L455,247 V335 H145 Z" fill="#fff7d7" stroke="#c48a00" stroke-width="3" filter="url(#shadow)"/>
<path d="M433,225 V247 H455" fill="#ffe7a1" stroke="#c48a00" stroke-width="2"/>
<text x="300.0" y="276.0" text-anchor="middle" font-family="Arial, sans-serif" font-size="18" font-weight="700" fill="#111">Ogłoszenie o naborze</text><path d="M145,395 H433 L455,417 V505 H145 Z" fill="#fff7d7" stroke="#c48a00" stroke-width="3" filter="url(#shadow)"/>
<path d="M433,395 V417 H455" fill="#ffe7a1" stroke="#c48a00" stroke-width="2"/>
<text x="300.0" y="435.65" text-anchor="middle" font-family="Arial, sans-serif" font-size="18" font-weight="700" fill="#111">Regulamin programu /</text>
<text x="300.0" y="456.34999999999997" text-anchor="middle" font-family="Arial, sans-serif" font-size="18" font-weight="700" fill="#111">warunki naboru</text><path d="M145,565 H433 L455,587 V675 H145 Z" fill="#fff7d7" stroke="#c48a00" stroke-width="3" filter="url(#shadow)"/>
<path d="M433,565 V587 H455" fill="#ffe7a1" stroke="#c48a00" stroke-width="2"/>
<text x="300.0" y="605.65" text-anchor="middle" font-family="Arial, sans-serif" font-size="18" font-weight="700" fill="#111">Kryteria</text>
<text x="300.0" y="626.35" text-anchor="middle" font-family="Arial, sans-serif" font-size="18" font-weight="700" fill="#111">kwalifikowalności</text><path d="M645,205 H933 L955,227 V310 H645 Z" fill="#fff7d7" stroke="#c48a00" stroke-width="3" filter="url(#shadow)"/>
<path d="M933,205 V227 H955" fill="#ffe7a1" stroke="#c48a00" stroke-width="2"/>
<text x="800.0" y="243.15" text-anchor="middle" font-family="Arial, sans-serif" font-size="18" font-weight="700" fill="#111">Wniosek o przyznanie</text>
<text x="800.0" y="263.85" text-anchor="middle" font-family="Arial, sans-serif" font-size="18" font-weight="700" fill="#111">pomocy</text><path d="M645,350 H933 L955,372 V455 H645 Z" fill="#fff7d7" stroke="#c48a00" stroke-width="3" filter="url(#shadow)"/>
<path d="M933,350 V372 H955" fill="#ffe7a1" stroke="#c48a00" stroke-width="2"/>
<text x="800.0" y="398.5" text-anchor="middle" font-family="Arial, sans-serif" font-size="18" font-weight="700" fill="#111">Biznesplan</text><path d="M645,495 H933 L955,517 V600 H645 Z" fill="#fff7d7" stroke="#c48a00" stroke-width="3" filter="url(#shadow)"/>
<path d="M933,495 V517 H955" fill="#ffe7a1" stroke="#c48a00" stroke-width="2"/>
<text x="800.0" y="533.15" text-anchor="middle" font-family="Arial, sans-serif" font-size="18" font-weight="700" fill="#111">Załączniki do</text>
<text x="800.0" y="553.85" text-anchor="middle" font-family="Arial, sans-serif" font-size="18" font-weight="700" fill="#111">wniosku</text><path d="M645,640 H933 L955,662 V745 H645 Z" fill="#fff7d7" stroke="#c48a00" stroke-width="3" filter="url(#shadow)"/>
<path d="M933,640 V662 H955" fill="#ffe7a1" stroke="#c48a00" stroke-width="2"/>
<text x="800.0" y="678.15" text-anchor="middle" font-family="Arial, sans-serif" font-size="18" font-weight="700" fill="#111">Uzupełnione</text>
<text x="800.0" y="698.85" text-anchor="middle" font-family="Arial, sans-serif" font-size="18" font-weight="700" fill="#111">dokumenty</text><path d="M1145,205 H1433 L1455,227 V310 H1145 Z" fill="#fff7d7" stroke="#c48a00" stroke-width="3" filter="url(#shadow)"/>
<path d="M1433,205 V227 H1455" fill="#ffe7a1" stroke="#c48a00" stroke-width="2"/>
<text x="1300.0" y="243.15" text-anchor="middle" font-family="Arial, sans-serif" font-size="18" font-weight="700" fill="#111">Potwierdzenie</text>
<text x="1300.0" y="263.85" text-anchor="middle" font-family="Arial, sans-serif" font-size="18" font-weight="700" fill="#111">złożenia wniosku</text><path d="M1145,350 H1433 L1455,372 V455 H1145 Z" fill="#fff7d7" stroke="#c48a00" stroke-width="3" filter="url(#shadow)"/>
<path d="M1433,350 V372 H1455" fill="#ffe7a1" stroke="#c48a00" stroke-width="2"/>
<text x="1300.0" y="388.15" text-anchor="middle" font-family="Arial, sans-serif" font-size="18" font-weight="700" fill="#111">Wezwanie do</text>
<text x="1300.0" y="408.84999999999997" text-anchor="middle" font-family="Arial, sans-serif" font-size="18" font-weight="700" fill="#111">uzupełnienia braków</text><path d="M1145,495 H1433 L1455,517 V600 H1145 Z" fill="#fff7d7" stroke="#c48a00" stroke-width="3" filter="url(#shadow)"/>
<path d="M1433,495 V517 H1455" fill="#ffe7a1" stroke="#c48a00" stroke-width="2"/>
<text x="1300.0" y="533.15" text-anchor="middle" font-family="Arial, sans-serif" font-size="18" font-weight="700" fill="#111">Decyzja o przyznaniu</text>
<text x="1300.0" y="553.85" text-anchor="middle" font-family="Arial, sans-serif" font-size="18" font-weight="700" fill="#111">pomocy</text><path d="M1145,640 H1433 L1455,662 V745 H1145 Z" fill="#fff7d7" stroke="#c48a00" stroke-width="3" filter="url(#shadow)"/>
<path d="M1433,640 V662 H1455" fill="#ffe7a1" stroke="#c48a00" stroke-width="2"/>
<text x="1300.0" y="688.5" text-anchor="middle" font-family="Arial, sans-serif" font-size="18" font-weight="700" fill="#111">Decyzja odmowna</text><line x1="455" y1="280" x2="645" y2="255" stroke="#222" stroke-width="3" marker-end="url(#arrow)"/><line x1="455" y1="450" x2="645" y2="255" stroke="#222" stroke-width="3" marker-end="url(#arrow)"/><line x1="455" y1="620" x2="645" y2="545" stroke="#222" stroke-width="3" marker-end="url(#arrow)"/><line x1="955" y1="255" x2="1145" y2="255" stroke="#222" stroke-width="3" marker-end="url(#arrow)"/><line x1="955" y1="545" x2="1145" y2="405" stroke="#222" stroke-width="3" marker-end="url(#arrow)"/><line x1="955" y1="400" x2="1145" y2="545" stroke="#222" stroke-width="3" marker-end="url(#arrow)"/><line x1="955" y1="400" x2="1145" y2="690" stroke="#222" stroke-width="3" marker-end="url(#arrow)"/><rect x="95" y="865" width="1410" height="45" rx="10" fill="#eef7ff" stroke="#9bc3e6"/><text x="800" y="894" text-anchor="middle" font-family="Arial" font-size="18" font-weight="700">Te obiekty należy potem powiązać z zadaniami BPMN: przygotowanie dokumentów, wypełnienie formularza, złożenie wniosku, weryfikacja, decyzja.</text></svg>